<svg width="45" height="43" viewBox="0 0 45 43" fill="none" xmlns="http://www.w3.org/2000/svg">
<path d="M30.5024 11V14.6235C30.5024 15.6761 31.8532 16.109 32.465 15.2524V15.2524C32.7745 14.8191 33.3532 14.6754 33.8294 14.9135L33.8664 14.932C34.6181 15.3078 35.5024 14.7612 35.5024 13.9209V8" stroke="#1A0F98" stroke-width="2"/>
<path d="M17 5L30.5 10.5" stroke="#1A0F98" stroke-width="2"/>
<path d="M22 3L35.5 8.5" stroke="#1A0F98" stroke-width="2"/>
<path d="M39 6.5L39 23" stroke="#1A0F98" stroke-width="2"/>
<path d="M12.5 7L25.7897 1.32256C26.2735 1.11589 26.8192 1.10815 27.3087 1.30101L38.1414 5.56963C38.9859 5.90241 38.9859 7.09759 38.1414 7.43037L26.5448 12" stroke="#1A0F98" stroke-width="2"/>
<path d="M12 21.8049V8.82221C12 7.4436 13.362 6.47837 14.6628 6.93521L25.6627 10.7986C26.4639 11.08 27 11.8365 27 12.6856V24" stroke="#1A0F98" stroke-width="2"/>
<path d="M18.9286 32.5821C21.4139 30.2397 27.2881 31.4109 28.8696 31.4109C30.4511 31.4109 30.677 30.2397 30.677 28.6001C30.677 27.418 29.5762 26.7812 28.8625 26.5526C28.7186 26.5065 28.5675 26.4919 28.4164 26.4919C27.1765 26.4919 24.6349 26.4919 22.7695 26.4919C20.7813 26.4919 19.8324 26.0234 19.6064 25.7892C17.6761 23.7878 14.5956 24.8631 13.1773 25.7135C13.0947 25.763 13.0178 25.8207 12.9447 25.8834L7.76322 30.3292C7.03233 30.9563 6.85216 32.0152 7.33455 32.8488L9.45835 36.5186C10.0524 37.5451 11.4127 37.8272 12.5041 37.3631C13.2512 37.0453 14.0889 36.7984 14.8619 36.7984C16.4886 36.7984 18.2508 37.5792 18.9286 37.9696C19.7571 38.4381 22.1369 39.2814 25.0288 38.9066C27.9207 38.5318 30.4511 37.0327 31.3548 36.33L42.846 27.1655C43.0164 27.0297 43.1686 26.8695 43.2601 26.6718C43.5143 26.1227 43.7041 25.2409 43.1032 24.618C42.1995 23.681 40.618 23.9153 39.7143 24.618C38.9913 25.1802 35.271 27.8973 33.3882 29.0685" stroke="#1A0F98" stroke-width="2"/>
<rect x="4.47681" y="30.9494" width="9.68185" height="2.96035" rx="1.48017" transform="rotate(54.5939 4.47681 30.9494)" stroke="#1A0F98" stroke-width="2.96035"/>
</svg>
