<svg width="47" height="47" viewBox="0 0 47 47" fill="none" xmlns="http://www.w3.org/2000/svg">
<g filter="url(#filter0_d_225_4)">
<circle cx="23.5" cy="19.5" r="19.5" fill="white"/>
</g>
<path d="M37.9617 18.986L37.737 20.4691L37.9617 18.986ZM39.648 20.3143C40.315 19.8228 40.4572 18.8838 39.9658 18.2169L31.9576 7.34867C31.4661 6.68175 30.5271 6.53947 29.8602 7.0309C29.1932 7.52233 29.051 8.46136 29.5424 9.12828L36.6608 18.7889L27.0002 25.9074C26.3333 26.3988 26.191 27.3378 26.6824 28.0047C27.1739 28.6717 28.1129 28.8139 28.7798 28.3225L39.648 20.3143ZM37.737 20.4691L38.5335 20.5898L38.9829 17.6236L38.1864 17.5029L37.737 20.4691ZM8.96655 25.429C17.7697 20.7131 27.8628 18.9731 37.737 20.4691L38.1864 17.5029C27.6718 15.9099 16.924 17.7628 7.54989 22.7846L8.96655 25.429Z" fill="#1A0F98"/>
<defs>
<filter id="filter0_d_225_4" x="0" y="0" width="47" height="47" filterUnits="userSpaceOnUse" color-interpolation-filters="sRGB">
<feFlood flood-opacity="0" result="BackgroundImageFix"/>
<feColorMatrix in="SourceAlpha" type="matrix" values="0 0 0 0 0 0 0 0 0 0 0 0 0 0 0 0 0 0 127 0" result="hardAlpha"/>
<feOffset dy="4"/>
<feGaussianBlur stdDeviation="2"/>
<feComposite in2="hardAlpha" operator="out"/>
<feColorMatrix type="matrix" values="0 0 0 0 0 0 0 0 0 0 0 0 0 0 0 0 0 0 0.25 0"/>
<feBlend mode="normal" in2="BackgroundImageFix" result="effect1_dropShadow_225_4"/>
<feBlend mode="normal" in="SourceGraphic" in2="effect1_dropShadow_225_4" result="shape"/>
</filter>
</defs>
</svg>
