<svg width="145" height="21" viewBox="0 0 145 21" fill="none" xmlns="http://www.w3.org/2000/svg">
<path d="M9.54894 2.92705C9.8483 2.00574 11.1517 2.00574 11.4511 2.92705L12.6329 6.56434C12.7668 6.97636 13.1507 7.25532 13.5839 7.25532H17.4084C18.3771 7.25532 18.7799 8.49494 17.9962 9.06434L14.9021 11.3123C14.5516 11.5669 14.405 12.0183 14.5389 12.4303L15.7207 16.0676C16.02 16.9889 14.9656 17.7551 14.1818 17.1857L11.0878 14.9377C10.7373 14.6831 10.2627 14.6831 9.91222 14.9377L6.81815 17.1857C6.03444 17.7551 4.97996 16.9889 5.27931 16.0676L6.46114 12.4303C6.59501 12.0183 6.44835 11.5669 6.09787 11.3123L3.00381 9.06434C2.22009 8.49494 2.62287 7.25532 3.59159 7.25532H7.41606C7.84929 7.25532 8.23324 6.97636 8.36712 6.56434L9.54894 2.92705Z" fill="#1A0F98"/>
<path d="M40.5489 2.92705C40.8483 2.00574 42.1517 2.00574 42.4511 2.92705L43.6329 6.56434C43.7668 6.97636 44.1507 7.25532 44.5839 7.25532H48.4084C49.3771 7.25532 49.7799 8.49494 48.9962 9.06434L45.9021 11.3123C45.5516 11.5669 45.405 12.0183 45.5389 12.4303L46.7207 16.0676C47.02 16.9889 45.9656 17.7551 45.1818 17.1857L42.0878 14.9377C41.7373 14.6831 41.2627 14.6831 40.9122 14.9377L37.8182 17.1857C37.0344 17.7551 35.98 16.9889 36.2793 16.0676L37.4611 12.4303C37.595 12.0183 37.4484 11.5669 37.0979 11.3123L34.0038 9.06434C33.2201 8.49494 33.6229 7.25532 34.5916 7.25532H38.4161C38.8493 7.25532 39.2332 6.97636 39.3671 6.56434L40.5489 2.92705Z" fill="#1A0F98"/>
<path d="M71.5489 2.92705C71.8483 2.00574 73.1517 2.00574 73.4511 2.92705L74.6329 6.56434C74.7668 6.97636 75.1507 7.25532 75.5839 7.25532H79.4084C80.3771 7.25532 80.7799 8.49494 79.9962 9.06434L76.9021 11.3123C76.5516 11.5669 76.405 12.0183 76.5389 12.4303L77.7207 16.0676C78.02 16.9889 76.9656 17.7551 76.1818 17.1857L73.0878 14.9377C72.7373 14.6831 72.2627 14.6831 71.9122 14.9377L68.8182 17.1857C68.0344 17.7551 66.98 16.9889 67.2793 16.0676L68.4611 12.4303C68.595 12.0183 68.4484 11.5669 68.0979 11.3123L65.0038 9.06434C64.2201 8.49494 64.6229 7.25532 65.5916 7.25532H69.4161C69.8493 7.25532 70.2332 6.97636 70.3671 6.56434L71.5489 2.92705Z" fill="#1A0F98"/>
<path d="M102.549 2.92705C102.848 2.00574 104.152 2.00574 104.451 2.92705L105.633 6.56434C105.767 6.97636 106.151 7.25532 106.584 7.25532H110.408C111.377 7.25532 111.78 8.49494 110.996 9.06434L107.902 11.3123C107.552 11.5669 107.405 12.0183 107.539 12.4303L108.721 16.0676C109.02 16.9889 107.966 17.7551 107.182 17.1857L104.088 14.9377C103.737 14.6831 103.263 14.6831 102.912 14.9377L99.8182 17.1857C99.0344 17.7551 97.98 16.9889 98.2793 16.0676L99.4611 12.4303C99.595 12.0183 99.4484 11.5669 99.0979 11.3123L96.0038 9.06434C95.2201 8.49494 95.6229 7.25532 96.5916 7.25532H100.416C100.849 7.25532 101.233 6.97636 101.367 6.56434L102.549 2.92705Z" fill="#1A0F98"/>
<path d="M133.549 2.92705C133.848 2.00574 135.152 2.00574 135.451 2.92705L136.633 6.56434C136.767 6.97636 137.151 7.25532 137.584 7.25532H141.408C142.377 7.25532 142.78 8.49494 141.996 9.06434L138.902 11.3123C138.552 11.5669 138.405 12.0183 138.539 12.4303L139.721 16.0676C140.02 16.9889 138.966 17.7551 138.182 17.1857L135.088 14.9377C134.737 14.6831 134.263 14.6831 133.912 14.9377L130.818 17.1857C130.034 17.7551 128.98 16.9889 129.279 16.0676L130.461 12.4303C130.595 12.0183 130.448 11.5669 130.098 11.3123L127.004 9.06434C126.22 8.49494 126.623 7.25532 127.592 7.25532H131.416C131.849 7.25532 132.233 6.97636 132.367 6.56434L133.549 2.92705Z" fill="#1A0F98"/>
</svg>
